<svg width="2000" height="2000" xmlns="http://www.w3.org/2000/svg">
 <!-- Created with Method Draw - http://github.com/duopixel/Method-Draw/ -->
 <g>
  <title>background</title>
  <rect fill="#fff" id="canvas_background" height="2002" width="2002" y="-1" x="-1"/>
  <g display="none" overflow="visible" y="0" x="0" height="100%" width="100%" id="canvasGrid">
   <rect fill="url(#gridpattern)" stroke-width="0" y="0" x="0" height="100%" width="100%"/>
  </g>
 </g>
 <g>
  <title>Layer 1</title>
  <g stroke="null" id="svg_47">
   <rect stroke="null" transform="matrix(2.020911106842419,2.020910299540806,-2.020910299540806,2.020911106842419,1258.264368468906,-781.6800142138105) " id="svg_31" height="180.628223" width="27.208517" y="314.955102" x="521.781947" stroke-opacity="null" stroke-width="0" fill="#c4ddaf"/>
   <rect stroke="null" transform="matrix(2.857895772110755,-0.02432891901899972,0.02432891901899972,2.857895772110755,-15.959888316803301,-24.65741358061338) " id="svg_33" height="118.257156" width="43.860897" y="232.988963" x="564.660395" stroke-opacity="null" stroke-width="0" fill="#c4ddaf"/>
   <rect stroke="null" transform="matrix(2.020911106842419,2.020910299540806,-2.020910299540806,2.020911106842419,940.541688781496,-1070.7463182696204) " id="svg_34" height="71.370931" width="35.340757" y="184.818617" x="584.221289" stroke-opacity="null" stroke-width="0" fill="#c4ddaf"/>
   <rect stroke="null" transform="matrix(2.85799302252109,-0.0060019805005202915,0.0060019805005202915,2.85799302252109,-10.081834087780132,-35.2165252315365) " id="svg_35" height="26.1212" width="32.02088" y="182.214261" x="607.288306" stroke-opacity="null" stroke-width="0" fill="#c4ddaf"/>
   <rect stroke="null" transform="matrix(2.857895772110755,-0.02432891901899972,0.02432891901899972,2.857895772110755,-20.3522470950901,-27.485539057399066) " id="svg_36" height="12.968589" width="22.331381" y="465.675898" x="458.413289" stroke-opacity="null" stroke-width="0" fill="#c4ddaf"/>
   <rect stroke="null" transform="matrix(2.020911106842419,2.020910299540806,-2.020910299540806,2.020911106842419,1000.3199228290675,-249.87463811863137) " id="svg_37" height="95.503332" width="92.797891" y="341.609968" x="219.24664" stroke-opacity="null" stroke-width="0" fill="#c4ddaf"/>
   <rect stroke="null" transform="matrix(2.857895772110755,-0.02432891901899972,0.02432891901899972,2.857895772110755,-16.788059179419847,-32.7539713014007) " id="svg_39" height="65.86886" width="16.663897" y="291.806613" x="245.324336" stroke-opacity="null" stroke-width="0" fill="#c4ddaf"/>
   <rect stroke="null" transform="matrix(2.857895772110755,-0.02432891901899972,0.02432891901899972,2.857895772110755,-21.39591177273186,-30.08237746721735) " id="svg_40" height="47.85103" width="70.776982" y="490.677727" x="327.271075" stroke-opacity="null" stroke-width="0" fill="#c4ddaf"/>
   <rect stroke="null" transform="matrix(2.020911106842419,2.020910299540806,-2.020910299540806,2.020911106842419,1057.5962897673903,-408.69532469840607) " id="svg_41" height="28.057552" width="239.180861" y="371.738835" x="223.155147" stroke-opacity="null" stroke-width="0" fill="#c4ddaf"/>
   <rect stroke="null" transform="matrix(2.857895772110755,-0.02432891901899972,0.02432891901899972,2.857895772110755,-16.785829782074845,-29.403939765721724) " id="svg_43" height="33.318589" width="225.057654" y="308.576243" x="278.822826" stroke-opacity="null" stroke-width="0" fill="#99ba71"/>
   <rect stroke="null" transform="matrix(2.857895772110755,-0.02432891901899972,0.02432891901899972,2.857895772110755,-16.878034541317223,-31.195769062255117) " id="svg_44" height="82.320758" width="30.681451" y="287.551491" x="302.34595" stroke-opacity="null" stroke-width="0" fill="#99ba71"/>
   <rect stroke="null" transform="matrix(2.857895772110755,-0.02432891901899972,0.02432891901899972,2.857895772110755,-17.78811415778515,-33.30207796737647) " id="svg_38" height="48.224969" width="64.171778" y="341.637537" x="198.866814" stroke-opacity="null" stroke-width="0" fill="#c4ddaf"/>
   <rect stroke="null" transform="matrix(2.857895772110755,-0.02432891901899972,0.02432891901899972,2.857895772110755,-11.865160948052747,-31.016548080786556) " id="svg_42" height="125.863034" width="40.656451" y="59.769605" x="305.601882" stroke-opacity="null" stroke-width="0" fill="#c4ddaf"/>
   <rect stroke="#ffffff" id="svg_2" height="431.557908" width="137.183972" y="1272.781189" x="1112.855024" stroke-width="0" fill="#8bc2e0"/>
   <rect stroke="#ffffff" transform="matrix(2.020910703191653,2.020910703191653,-2.020910703191653,2.020910703191653,1082.9359061652117,-406.72208274210664) " id="svg_3" height="27.694912" width="214.800846" y="382.96773" x="238.944784" stroke-width="0" fill="#8bc2e0"/>
   <rect stroke="#ffffff" transform="matrix(2.8579418361264604,-0.0181273789412301,0.0181273789412301,2.8579418361264604,-17.352499935674786,-30.9100084892139) " id="svg_4" height="15.993794" width="32.665789" y="458.933058" x="426.198331" stroke-width="0" fill="#8bc2e0"/>
   <rect width="0" stroke="#ffffff" id="svg_6" height="2.857999" y="1355.663179" x="1507.258935" stroke-width="0" fill="#8bc2e0"/>
   <rect stroke="#ffffff" transform="matrix(2.0100857377358965,-2.0316779930638367,2.0316779930638367,2.0100857377358965,-431.29729668317736,1350.998306912167) " id="svg_10" height="19.825399" width="220.601644" y="410.316067" x="398.460723" stroke-width="0" fill="#8bc2e0"/>
   <rect stroke="#ffffff" id="svg_12" height="323.310794" width="56.445455" y="634.375684" x="1630.510171" fill-opacity="null" stroke-opacity="null" stroke-width="0" fill="#8bc2e0"/>
   <rect stroke="#ffffff" transform="matrix(2.0100857377358965,-2.0316779930638367,2.0316779930638367,2.0100857377358965,56.36290720123723,1367.145142166576) " id="svg_13" height="14.732585" width="62.379266" y="211.2648" x="569.655563" stroke-width="0" fill="#8bc2e0"/>
   <rect stroke="#ffffff" id="svg_14" height="150.223551" width="35.725024" y="386.801407" x="1750.367498" fill-opacity="null" stroke-opacity="null" stroke-width="0" fill="#8bc2e0"/>
   <rect stroke="#ffffff" transform="matrix(2.020910703191653,2.020910703191653,-2.020910703191653,2.020910703191653,773.0521861979994,-1149.6681768157443) " id="svg_15" height="12.757282" width="49.47047" y="129.577188" x="581.188073" stroke-width="0" fill="#8bc2e0"/>
   <rect stroke="#ffffff" id="svg_18" height="28.044132" width="115.748937" y="286.771431" x="1570.134916" fill-opacity="null" stroke-opacity="null" stroke-width="0" fill="#8bc2e0"/>
   <rect stroke="#ffffff" transform="matrix(2.020910703191653,2.020910703191653,-2.020910703191653,2.020910703191653,676.7826809675112,-1053.8118554929936) " id="svg_19" height="10.989525" width="22.02589" y="106.570436" x="537.582265" stroke-width="0" fill="#8bc2e0"/>
   <rect stroke="#ffffff" id="svg_20" height="68.949502" width="31.678412" y="838.00768" x="736.432619" fill-opacity="null" stroke-opacity="null" stroke-width="0" fill="#8bc2e0"/>
   <rect stroke="#ffffff" transform="matrix(2.020910703191653,2.020910703191653,-2.020910703191653,2.020910703191653,653.9570556665783,-247.5890640134278) " id="svg_21" height="12.138567" width="205.63754" y="237.40196" x="101.26606" stroke-width="0" fill="#8bc2e0"/>
   <rect stroke="#ffffff" id="svg_22" height="28.579993" width="242.929961" y="436.994895" x="136.312505" fill-opacity="null" stroke-opacity="null" stroke-width="0" fill="#8bc2e0"/>
   <rect stroke="#ffffff" transform="matrix(2.020910703191653,2.020910703191653,-2.020910703191653,2.020910703191653,320.30367984324477,23.119364008508477) " id="svg_23" height="10.017249" width="65.159392" y="144.900288" x="-1.203273" stroke-width="0" fill="#8bc2e0"/>
   <rect stroke="#cccccc" transform="matrix(2.020910703191653,2.020910703191653,-2.020910703191653,2.020910703191653,970.9113308253549,-515.0375557995295) " id="svg_46" height="437.815994" width="437.815994" y="111.642787" x="153.586987" stroke-width="3" fill="none"/>
  </g>
 </g>
</svg>